<svg xmlns="http://www.w3.org/2000/svg" xmlns:xlink="http://www.w3.org/1999/xlink" width="220" zoomAndPan="magnify" viewBox="0 0 165 82.499998" height="110" preserveAspectRatio="xMidYMid meet" version="1.0"><defs><clipPath id="83b9988ba4"><path d="M 0.496094 0 L 164.503906 0 L 164.503906 82.003906 L 0.496094 82.003906 Z M 0.496094 0 " clip-rule="nonzero"/></clipPath><clipPath id="3aae344b2d"><path d="M 139 35 L 156.300781 35 L 156.300781 54 L 139 54 Z M 139 35 " clip-rule="nonzero"/></clipPath><clipPath id="1ae92bdaa6"><path d="M 8.699219 16.09375 L 23 16.09375 L 23 52 L 8.699219 52 Z M 8.699219 16.09375 " clip-rule="nonzero"/></clipPath></defs><g clip-path="url(#83b9988ba4)"><path fill="#ffffff" d="M 0.496094 0 L 164.503906 0 L 164.503906 82.003906 L 0.496094 82.003906 Z M 0.496094 0 " fill-opacity="1" fill-rule="nonzero"/></g><path fill="#364459" d="M 69.808594 49.722656 C 67.261719 49.722656 65.34375 47.761719 65.34375 44.542969 C 65.34375 41.324219 67.300781 39.4375 69.808594 39.4375 C 72.355469 39.4375 74.273438 41.289062 74.273438 44.542969 C 74.273438 47.800781 72.390625 49.722656 69.808594 49.722656 Z M 70.582031 35.996094 C 68.039062 35.996094 66.117188 37.183594 65.34375 38.441406 L 65.34375 28.488281 L 61.46875 28.488281 L 61.46875 52.796875 L 65.34375 52.796875 L 65.34375 50.613281 C 66.304688 52.203125 68.109375 53.203125 70.472656 53.203125 C 75.304688 53.203125 78.292969 49.464844 78.292969 44.542969 C 78.257812 39.625 75.5625 36.035156 70.582031 35.996094 Z M 70.582031 35.996094 " fill-opacity="1" fill-rule="evenodd"/><path fill="#364459" d="M 95.855469 36.441406 L 91.90625 36.441406 L 91.90625 46.097656 C 91.90625 48.246094 90.726562 49.761719 88.441406 49.761719 C 86.152344 49.761719 85.082031 48.058594 85.082031 46.023438 L 85.082031 36.441406 L 81.136719 36.441406 L 81.136719 46.765625 C 81.136719 50.390625 83.460938 53.277344 87.40625 53.277344 C 89.363281 53.277344 91.316406 52.460938 92.128906 50.980469 C 92.128906 51.648438 92.203125 52.425781 92.277344 52.796875 L 96.078125 52.796875 C 96.003906 52.203125 95.894531 51.167969 95.894531 49.796875 L 95.894531 36.441406 Z M 95.855469 36.441406 " fill-opacity="1" fill-rule="evenodd"/><path fill="#364459" d="M 100.984375 36.441406 L 104.894531 36.441406 L 104.894531 52.796875 L 100.984375 52.796875 Z M 100.984375 36.441406 " fill-opacity="1" fill-rule="evenodd"/><path fill="#364459" d="M 100.984375 28.488281 L 104.96875 28.488281 L 104.96875 32.410156 L 100.984375 32.410156 Z M 100.984375 28.488281 " fill-opacity="1" fill-rule="evenodd"/><path fill="#364459" d="M 114.007812 28.488281 L 110.058594 28.488281 L 110.058594 52.796875 L 117.179688 52.796875 L 117.179688 48.910156 L 113.972656 48.910156 Z M 114.007812 28.488281 " fill-opacity="1" fill-rule="evenodd"/><path fill="#364459" d="M 127.621094 49.761719 C 124.929688 49.761719 123.15625 47.6875 123.15625 44.542969 C 123.15625 41.4375 125.078125 39.4375 127.660156 39.4375 C 130.242188 39.4375 132.050781 41.398438 132.050781 44.507812 C 132.050781 47.652344 130.242188 49.761719 127.621094 49.761719 Z M 135.886719 28.488281 L 132.011719 28.488281 L 132.011719 38.367188 C 131.496094 37.328125 130.019531 35.996094 127.140625 35.996094 C 122.457031 35.996094 119.210938 39.847656 119.210938 44.542969 C 119.210938 49.464844 122.417969 53.164062 127.214844 53.164062 C 129.578125 53.164062 131.3125 52.019531 132.085938 50.648438 C 132.085938 51.316406 132.195312 52.386719 132.269531 52.757812 L 136.070312 52.757812 C 136.035156 52.5 135.886719 51.242188 135.886719 49.761719 Z M 135.886719 28.488281 " fill-opacity="1" fill-rule="evenodd"/><g clip-path="url(#3aae344b2d)"><path fill="#364459" d="M 147.65625 49.796875 C 145.21875 49.796875 143.007812 47.984375 143.007812 44.582031 C 143.007812 41.175781 145.21875 39.4375 147.65625 39.4375 C 150.089844 39.4375 152.304688 41.175781 152.304688 44.582031 C 152.304688 47.984375 150.089844 49.796875 147.65625 49.796875 Z M 147.65625 35.960938 C 142.710938 35.960938 139.058594 39.625 139.058594 44.617188 C 139.058594 49.613281 142.710938 53.3125 147.65625 53.3125 C 152.597656 53.3125 156.289062 49.648438 156.289062 44.617188 C 156.289062 39.585938 152.636719 35.960938 147.65625 35.960938 Z M 147.65625 35.960938 " fill-opacity="1" fill-rule="evenodd"/></g><path fill="#6ecdcf" d="M 10.8125 60.15625 L 17.859375 65.300781 C 18.523438 65.78125 19.375 65.855469 20.113281 65.523438 L 35.605469 58.605469 C 36.417969 58.234375 36.53125 57.160156 35.828125 56.644531 L 28.746094 51.5 C 28.082031 51.019531 27.230469 50.945312 26.496094 51.277344 L 11 58.195312 C 10.222656 58.53125 10.113281 59.640625 10.8125 60.15625 Z M 10.8125 60.15625 " fill-opacity="1" fill-rule="evenodd"/><g clip-path="url(#1ae92bdaa6)"><path fill="#f25b6c" d="M 10.296875 51.609375 L 18.230469 48.058594 C 18.96875 47.726562 19.484375 47.023438 19.558594 46.210938 L 22.582031 17.3125 C 22.695312 16.464844 21.808594 15.796875 20.996094 16.167969 L 13.066406 19.757812 C 12.328125 20.089844 11.808594 20.792969 11.738281 21.605469 L 8.710938 50.464844 C 8.636719 51.316406 9.523438 51.980469 10.296875 51.609375 Z M 10.296875 51.609375 " fill-opacity="1" fill-rule="evenodd"/></g><path fill="#ffcb3d" d="M 43.28125 52.238281 L 44.203125 43.582031 C 44.277344 42.769531 43.945312 41.992188 43.28125 41.511719 L 29.1875 31.1875 C 28.488281 30.671875 27.492188 31.113281 27.378906 32.003906 L 26.457031 40.660156 C 26.382812 41.472656 26.714844 42.25 27.378906 42.730469 L 41.472656 53.015625 C 42.210938 53.535156 43.207031 53.089844 43.28125 52.238281 Z M 43.28125 52.238281 " fill-opacity="1" fill-rule="evenodd"/></svg>